<svg xmlns="http://www.w3.org/2000/svg" width="55" height="55" viewBox="0 0 55 55" fill="none">
  <path fill-rule="evenodd" clip-rule="evenodd" d="M50.948 41.8338C53.5066 37.6582 54.9816 32.7468 54.9816 27.4908C54.9816 12.3081 42.6736 0 27.4908 0C12.3081 0 2.27976e-06 12.3081 2.27976e-06 27.4908C2.27976e-06 32.7468 1.47501 37.6582 4.03366 41.8338C12.3146 27.4908 42.667 27.4908 50.948 41.8338Z" fill="#D9D9D9"/>
  <path d="M4.03366 41.8338C8.86612 49.7202 17.564 54.9816 27.4908 54.9816C37.4176 54.9816 46.1155 49.7202 50.948 41.8338C42.667 27.4908 12.3146 27.4908 4.03366 41.8338Z" fill="#01189B"/>
  <circle cx="27.4606" cy="15.5385" r="11.9525" fill="#01189B"/>
</svg>
